<?xml version="1.0" encoding="utf-8"?>
<!-- Generator: Adobe Illustrator 23.0.6, SVG Export Plug-In . SVG Version: 6.00 Build 0)  -->
<svg version="1.1" id="Layer_1" xmlns="http://www.w3.org/2000/svg" xmlns:xlink="http://www.w3.org/1999/xlink" x="0px" y="0px"
	 viewBox="0 0 70.5 70.8" style="enable-background:new 0 0 70.5 70.8;" xml:space="preserve">
<style type="text/css">
	.st0{clip-path:url(#SVGID_2_);fill:#FFFFFF;}
</style>
<g>
	<defs>
		<rect id="SVGID_1_" x="4.7" y="4.3" width="62" height="62"/>
	</defs>
	<clipPath id="SVGID_2_">
		<use xlink:href="#SVGID_1_"  style="overflow:visible;"/>
	</clipPath>
	<path class="st0" d="M35.7,8.1c-15,0-27.2,12.2-27.2,27.2s12.2,27.2,27.2,27.2s27.2-12.2,27.2-27.2S50.7,8.1,35.7,8.1 M35.7,66.3
		c-17.1,0-31-13.9-31-31s13.9-31,31-31s31,13.9,31,31S52.7,66.3,35.7,66.3"/>
	<path class="st0" d="M23.8,17.8c0,0-4.7,0.9-6.2,7.1c-1.4,6.2,5.2,13.7,8.5,17s13.3,12.3,19.9,11.8c6.6-0.5,8-8,8-8
		s-0.5-1.4-2.8-2.4c-2.4-0.9-4.7-3.3-6.6-2.4c-1.9,0.9-1.9,3.8-3.8,3.8c-1.9,0-5.7-1.4-9-4.7s-6.2-6.6-5.7-9
		c0.5-2.4,4.3-1.9,4.3-4.7s-2.4-7.6-3.3-8.5C26.2,16.9,23.8,17.8,23.8,17.8"/>
</g>
</svg>
