<?xml version="1.0" encoding="utf-8"?>
<!-- Generator: Adobe Illustrator 22.1.0, SVG Export Plug-In . SVG Version: 6.00 Build 0)  -->
<svg version="1.1" id="Layer_1" xmlns="http://www.w3.org/2000/svg" xmlns:xlink="http://www.w3.org/1999/xlink" x="0px" y="0px"
	 viewBox="0 0 238.1 89.9" style="enable-background:new 0 0 238.1 89.9;" xml:space="preserve">
<style type="text/css">
	.st0{fill:#FFFFFF;}
</style>
<path class="st0" d="M149.1,2.1l-0.2,0.6l-21,59.6h-0.2L106.8,2.1H72.3c-3.3,0-6.8,0.1-10.2,0.1c-3.1,0-6.4,0.3-9.9,1
	c-3.5,0.6-6.7,1.7-9.5,3.3c-2.9,1.6-5.3,3.7-7.1,6.3c-1.9,2.6-2.8,6-2.8,10c0,3.2,0.7,5.9,2.2,8.2c1.4,2.3,3.3,4.1,5.6,5.6
	c2.3,1.4,4.8,2.5,7.6,3.3s5.6,1.3,8.3,1.5V42c-3.9,0.7-7.4,1.4-10.5,2.2c-3.1,0.7-5.7,1.8-8,3.2c-2.2,1.4-4,3.4-5.3,6
	s-2.1,6-2.5,10.3c-0.4,5-0.7,9.1-1,12.1c-0.2,3-0.6,5.4-1,7.1s-1,2.8-1.8,3.4s-1.9,0.8-3.3,0.8c-1.6,0-2.9-0.5-4-1.4
	c-1-0.9-2-1.8-2.8-2.6l-1.2,1.1c0.8,0.8,1.6,1.5,2.3,2.2c0.8,0.7,1.6,1.3,2.6,1.7c1,0.5,2.2,0.9,3.7,1.1c1.4,0.3,3.2,0.4,5.4,0.4
	c4.4,0,7.8-0.7,10.3-2.1s4.3-3.1,5.5-5.2s1.9-4.3,2.2-6.8c0.3-2.4,0.5-4.7,0.5-6.9c0.2-3.3,0.4-6.5,0.7-9.5c0.3-3.1,0.9-5.8,2-8.2
	c1-2.4,2.6-4.3,4.7-5.8c2.1-1.4,5-2.2,8.8-2.2h7.9v43.3h-11v1.7H76h24l0,0v-1.7l0,0H89v-82h0.2l29.6,83.7h1.9l29.5-83.7h0.2v82.1
	h-10.9h-0.1V88h0.1h39.4l0,0v-1.7l0,0h-11V43h7.9c3.8,0,6.7,0.7,8.8,2.2c2.1,1.4,3.6,3.4,4.7,5.8c1,2.4,1.7,5.1,2,8.2
	s0.5,6.3,0.7,9.5c0.1,2.2,0.3,4.5,0.5,6.9c0.3,2.4,1,4.7,2.2,6.8c1.2,2.1,3,3.8,5.5,5.2c2.5,1.4,5.9,2.1,10.3,2.1
	c2.2,0,4-0.1,5.4-0.4s2.7-0.7,3.7-1.1c1-0.5,1.9-1.1,2.6-1.7c0.8-0.7,1.5-1.4,2.3-2.2l-1.2-1.1c-0.8,0.8-1.7,1.7-2.8,2.6
	c-1,0.9-2.4,1.4-4,1.4c-1.4,0-2.5-0.3-3.3-0.8c-0.8-0.6-1.4-1.7-1.8-3.4c-0.4-1.7-0.8-4-1-7.1c-0.2-3-0.6-7.1-1-12.1
	c-0.3-4.3-1.1-7.8-2.5-10.3c-1.3-2.6-3.1-4.6-5.3-6s-4.9-2.5-8-3.2s-6.6-1.4-10.5-2.2v-0.6c2.7-0.2,5.5-0.7,8.3-1.5s5.3-1.9,7.6-3.3
	s4.1-3.3,5.6-5.6c1.4-2.3,2.2-5,2.2-8.2c0-4-0.9-7.3-2.8-10c-1.9-2.6-4.3-4.7-7.1-6.3c-2.9-1.6-6.1-2.7-9.5-3.3
	c-3.5-0.6-6.8-1-9.9-1L149.1,2.1z M71.6,41.3h-4.9c-3.6,0-6.4-0.5-8.5-1.4c-2.1-1-3.6-2.3-4.7-3.9c-1-1.6-1.7-3.5-2-5.6
	C51.2,28.3,51,26.2,51,24c0-3.5,0.2-6.5,0.7-9.1c0.5-2.5,1.3-4.6,2.4-6.2c1.1-1.6,2.7-2.9,4.6-3.7c2-0.8,4.5-1.2,7.5-1.2
	c0.9,0,1.8,0,2.6,0.1c0.9,0.1,1.8,0.2,2.6,0.2v37.2H71.6z M172.8,41.3h-4.9V4.2h9.7c1.1,0.2,2.2,0.5,3.1,0.8c2,0.8,3.5,2,4.6,3.7
	c1.1,1.6,1.9,3.7,2.4,6.2s0.7,5.5,0.7,9.1c0,2.2-0.1,4.3-0.4,6.4c-0.3,2.1-0.9,3.9-2,5.6c-1,1.6-2.6,2.9-4.7,3.9
	C179.3,40.8,176.4,41.3,172.8,41.3z"/>
</svg>
