<?xml version="1.0" encoding="utf-8"?>
<!-- Generator: Adobe Illustrator 22.1.0, SVG Export Plug-In . SVG Version: 6.00 Build 0)  -->
<svg version="1.1" id="Layer_1" xmlns="http://www.w3.org/2000/svg" xmlns:xlink="http://www.w3.org/1999/xlink" x="0px" y="0px"
	 viewBox="0 0 151.9 55.3" style="enable-background:new 0 0 151.9 55.3;" xml:space="preserve">
<style type="text/css">
	.st0{fill:#FFFFFF;}
	.st1{fill:#E6ADBE;}
</style>
<g>
	<g>
		<path class="st0" d="M0.7,31.1v-0.2h2.4c0.4,0,0.9,0,1.3,0c0.4,0,0.9,0,1.3,0c0.4,0,0.8,0,1.3,0.1c0.5,0.1,0.9,0.2,1.3,0.4
			c0.4,0.2,0.7,0.5,0.9,0.8c0.2,0.3,0.4,0.8,0.4,1.3c0,0.4-0.1,0.8-0.3,1.1c-0.2,0.3-0.4,0.5-0.7,0.7c-0.3,0.2-0.6,0.3-1,0.4
			c-0.4,0.1-0.7,0.2-1.1,0.2v0.1c0.5,0.1,1,0.2,1.4,0.3c0.4,0.1,0.8,0.2,1.1,0.4c0.3,0.2,0.5,0.5,0.7,0.8c0.2,0.3,0.3,0.8,0.3,1.4
			c0.1,0.7,0.1,1.2,0.1,1.6c0,0.4,0.1,0.7,0.1,0.9c0.1,0.2,0.1,0.4,0.2,0.4c0.1,0.1,0.2,0.1,0.4,0.1c0.2,0,0.4-0.1,0.5-0.2
			c0.1-0.1,0.3-0.2,0.4-0.3l0.2,0.1c-0.1,0.1-0.2,0.2-0.3,0.3c-0.1,0.1-0.2,0.2-0.3,0.2c-0.1,0.1-0.3,0.1-0.5,0.2
			c-0.2,0-0.4,0.1-0.7,0.1c-0.6,0-1-0.1-1.4-0.3c-0.3-0.2-0.6-0.4-0.7-0.7c-0.2-0.3-0.3-0.6-0.3-0.9c0-0.3-0.1-0.6-0.1-0.9
			c0-0.4-0.1-0.9-0.1-1.3c0-0.4-0.1-0.8-0.3-1.1s-0.3-0.6-0.6-0.8c-0.3-0.2-0.7-0.3-1.2-0.3h-1v5.7h1.5v0.2H0.7v-0.2h1.5V31.1H0.7z
			 M5.1,36c0.5,0,0.9-0.1,1.1-0.2c0.3-0.1,0.5-0.3,0.6-0.5c0.1-0.2,0.2-0.5,0.3-0.7c0-0.3,0.1-0.6,0.1-0.8c0-0.5,0-0.9-0.1-1.2
			c-0.1-0.3-0.2-0.6-0.3-0.8c-0.1-0.2-0.4-0.4-0.6-0.5c-0.3-0.1-0.6-0.2-1-0.2c-0.1,0-0.2,0-0.3,0c-0.1,0-0.2,0-0.3,0V36H5.1z"/>
		<path class="st0" d="M15.8,35.3v5c0,0.4,0.1,0.7,0.2,1c0.2,0.3,0.4,0.4,0.8,0.4c0.2,0,0.5-0.1,0.7-0.2c0.2-0.1,0.4-0.3,0.5-0.5
			c0.1-0.2,0.3-0.4,0.3-0.7c0.1-0.3,0.1-0.5,0.1-0.8v-4.1h-1v-0.2h3v6.6h1v0.2h-3v-1.3h0c-0.1,0.2-0.2,0.4-0.4,0.6
			c-0.2,0.2-0.4,0.3-0.6,0.4c-0.2,0.1-0.4,0.2-0.7,0.3c-0.2,0.1-0.5,0.1-0.7,0.1c-0.7,0-1.3-0.2-1.7-0.5c-0.4-0.3-0.6-0.9-0.6-1.6
			v-4.6h-1.1v-0.2H15.8z"/>
		<path class="st0" d="M25,33.5c0.2,0,0.3,0.1,0.5,0.1s0.3,0,0.5-0.1c0.2,0,0.3-0.1,0.5-0.2v2h1.9v0.2h-1.9v5.3c0,0.2,0,0.3,0,0.4
			c0,0.1,0.1,0.3,0.1,0.4c0.1,0.1,0.1,0.2,0.3,0.3c0.1,0.1,0.3,0.1,0.4,0.1c0.2,0,0.4,0,0.5-0.1c0.1-0.1,0.3-0.2,0.4-0.3
			c0.1-0.1,0.2-0.3,0.3-0.5c0.1-0.2,0.1-0.3,0.2-0.5l0.2,0c-0.1,0.4-0.2,0.6-0.3,0.9c-0.2,0.2-0.3,0.4-0.5,0.5
			c-0.2,0.1-0.4,0.2-0.6,0.2c-0.2,0-0.4,0.1-0.6,0.1c-0.6,0-1-0.1-1.3-0.2s-0.5-0.3-0.7-0.5c-0.1-0.2-0.2-0.4-0.2-0.6
			c0-0.2,0-0.4,0-0.6v-4.9h-1.1v-0.2h1.1v-2C24.6,33.4,24.8,33.4,25,33.5z"/>
		<path class="st0" d="M31.2,41.9v-11h-1v-0.2h3v6.2h0c0-0.1,0.1-0.2,0.2-0.4c0.1-0.2,0.3-0.4,0.5-0.6c0.2-0.2,0.5-0.3,0.8-0.5
			c0.3-0.1,0.7-0.2,1.2-0.2c0.7,0,1.2,0.2,1.6,0.6c0.4,0.4,0.6,1,0.6,1.6v4.5H39v0.2h-4v-0.2h1v-5c0-0.4-0.1-0.8-0.3-1
			c-0.2-0.2-0.4-0.3-0.7-0.3c-0.3,0-0.5,0.1-0.7,0.2c-0.2,0.1-0.4,0.3-0.6,0.5c-0.2,0.2-0.3,0.5-0.4,0.9c-0.1,0.4-0.2,0.8-0.2,1.3
			v3.4h1v0.2h-4v-0.2H31.2z"/>
		<path class="st0" d="M50.1,30.9l2.7,7.9h0l2.8-7.9h4v0.2h-1.5v10.8h1.5v0.2h-5.2v-0.2h1.4V31.1h0L52,42.1h-0.3l-3.9-11.1h0v10.8
			h1.5v0.2h-3.2v-0.2h1.5V31.1h-1.5v-0.2H50.1z"/>
		<path class="st0" d="M68.4,42.3c-0.3,0-0.5,0.1-0.8,0.1c-0.5,0-0.9-0.1-1.2-0.3c-0.3-0.2-0.4-0.5-0.5-0.8h0
			c-0.2,0.4-0.4,0.7-0.7,0.9c-0.3,0.1-0.7,0.2-1.3,0.2c-0.3,0-0.5,0-0.8-0.1c-0.3-0.1-0.5-0.1-0.7-0.3c-0.2-0.1-0.4-0.3-0.5-0.5
			c-0.1-0.2-0.2-0.5-0.2-0.8c0-0.3,0.1-0.6,0.2-0.8c0.1-0.2,0.3-0.4,0.5-0.5c0.2-0.1,0.4-0.3,0.7-0.3c0.2-0.1,0.5-0.2,0.8-0.3
			c0.4-0.1,0.8-0.2,1.1-0.3c0.3-0.1,0.5-0.2,0.6-0.3c0.1-0.1,0.3-0.2,0.3-0.3c0.1-0.1,0.1-0.3,0.1-0.5v-1c0-0.3-0.1-0.5-0.2-0.8
			c-0.1-0.2-0.4-0.3-0.8-0.3c-0.2,0-0.5,0.1-0.6,0.2C64,35.6,64,35.8,64,36.1c0,0,0,0.1,0,0.2c0,0.1,0,0.2,0,0.3c0,0.1,0,0.2,0,0.3
			c0,0.1,0,0.1,0,0.2c0,0.2,0,0.3-0.1,0.4c-0.1,0.1-0.2,0.2-0.3,0.2c-0.1,0-0.2,0.1-0.3,0.1c-0.1,0-0.2,0-0.3,0c-0.1,0-0.2,0-0.3,0
			c-0.1,0-0.2-0.1-0.3-0.1c-0.1-0.1-0.2-0.1-0.2-0.2c-0.1-0.1-0.1-0.2-0.1-0.4c0-0.3,0.1-0.5,0.2-0.7c0.2-0.2,0.4-0.4,0.6-0.5
			c0.3-0.1,0.5-0.3,0.9-0.3c0.3-0.1,0.7-0.1,1-0.1c0.4,0,0.8,0,1.1,0.1c0.4,0.1,0.7,0.2,0.9,0.3c0.3,0.2,0.5,0.4,0.6,0.7
			c0.2,0.3,0.2,0.7,0.2,1.1v3.9c0,0.2,0,0.4,0.1,0.5c0.1,0.2,0.2,0.2,0.4,0.2c0.1,0,0.3,0,0.3-0.1s0.2-0.1,0.3-0.2l0.1,0.1
			C68.9,42.1,68.7,42.2,68.4,42.3z M65.8,38.2c0,0.1-0.1,0.1-0.1,0.2c-0.1,0.1-0.2,0.1-0.3,0.2c-0.2,0.1-0.4,0.2-0.6,0.3
			c-0.2,0.1-0.4,0.2-0.5,0.3c-0.2,0.1-0.3,0.3-0.4,0.5c-0.1,0.2-0.2,0.5-0.2,0.8c0,0.1,0,0.3,0,0.4c0,0.2,0.1,0.3,0.1,0.5
			c0.1,0.2,0.2,0.3,0.3,0.4c0.1,0.1,0.3,0.2,0.6,0.2c0.1,0,0.3,0,0.4-0.1c0.1-0.1,0.3-0.2,0.4-0.3c0.1-0.1,0.2-0.3,0.3-0.5
			s0.1-0.5,0.1-0.8L65.8,38.2L65.8,38.2z"/>
		<path class="st0" d="M73.6,35.3v1.3h0c0.2-0.4,0.4-0.7,0.8-1c0.3-0.3,0.7-0.4,1.3-0.4c0.4,0,0.8,0.1,1.1,0.4
			c0.3,0.2,0.4,0.6,0.4,1c0,0.3-0.1,0.6-0.2,0.7c-0.2,0.2-0.4,0.3-0.7,0.3c-0.2,0-0.5-0.1-0.7-0.2c-0.2-0.1-0.3-0.3-0.3-0.6
			c0,0,0-0.1,0-0.2c0-0.1,0-0.2,0-0.3c0-0.1,0-0.2,0-0.2c0-0.1,0-0.1,0-0.1c0-0.1,0-0.2,0-0.2c0,0-0.1-0.1-0.1-0.1
			c0,0-0.1-0.1-0.2-0.1c-0.1,0-0.2,0.1-0.4,0.2c-0.2,0.1-0.3,0.2-0.4,0.4c-0.1,0.2-0.3,0.4-0.4,0.7c-0.1,0.3-0.2,0.6-0.2,0.9v4.1
			h1.3v0.2h-4.2v-0.2h1v-6.4h-1v-0.2H73.6z"/>
		<path class="st0" d="M81.4,30.7v7.6h0.1l3-2.7h-1.2v-0.2h2.5v0.2h-1L83,37.2l3.6,4.7h0.6v0.2H83v-0.2h1.1l-2.7-3.4h-0.1v3.4h1v0.2
			h-4v-0.2h1v-11h-1v-0.2H81.4z"/>
		<path class="st0" d="M92.5,37.7v0.5h-3v-0.5H92.5z"/>
		<path class="st0" d="M95.3,31.1v-0.2h2.4c0.4,0,0.9,0,1.3,0c0.4,0,0.9,0,1.3,0c0.4,0,0.8,0,1.3,0.1c0.5,0.1,0.9,0.2,1.3,0.4
			c0.4,0.2,0.7,0.5,0.9,0.8c0.2,0.3,0.4,0.8,0.4,1.3c0,0.4-0.1,0.8-0.3,1.1c-0.2,0.3-0.4,0.5-0.7,0.7c-0.3,0.2-0.6,0.3-1,0.4
			c-0.4,0.1-0.7,0.2-1.1,0.2v0.1c0.5,0.1,1,0.2,1.4,0.3c0.4,0.1,0.8,0.2,1.1,0.4c0.3,0.2,0.5,0.5,0.7,0.8c0.2,0.3,0.3,0.8,0.3,1.4
			c0.1,0.7,0.1,1.2,0.1,1.6c0,0.4,0.1,0.7,0.1,0.9c0.1,0.2,0.1,0.4,0.2,0.4c0.1,0.1,0.2,0.1,0.4,0.1c0.2,0,0.4-0.1,0.5-0.2
			c0.1-0.1,0.3-0.2,0.4-0.3l0.2,0.1c-0.1,0.1-0.2,0.2-0.3,0.3c-0.1,0.1-0.2,0.2-0.3,0.2c-0.1,0.1-0.3,0.1-0.5,0.2
			c-0.2,0-0.4,0.1-0.7,0.1c-0.6,0-1-0.1-1.4-0.3c-0.3-0.2-0.6-0.4-0.7-0.7c-0.2-0.3-0.3-0.6-0.3-0.9c0-0.3-0.1-0.6-0.1-0.9
			c0-0.4-0.1-0.9-0.1-1.3c0-0.4-0.1-0.8-0.3-1.1s-0.3-0.6-0.6-0.8c-0.3-0.2-0.7-0.3-1.2-0.3h-1v5.7h1.5v0.2h-5.2v-0.2h1.5V31.1H95.3
			z M99.7,36c0.5,0,0.9-0.1,1.1-0.2c0.3-0.1,0.5-0.3,0.6-0.5c0.1-0.2,0.2-0.5,0.3-0.7c0-0.3,0.1-0.6,0.1-0.8c0-0.5,0-0.9-0.1-1.2
			c-0.1-0.3-0.2-0.6-0.3-0.8c-0.1-0.2-0.4-0.4-0.6-0.5c-0.3-0.1-0.6-0.2-1-0.2c-0.1,0-0.2,0-0.3,0c-0.1,0-0.2,0-0.3,0V36H99.7z"/>
		<path class="st0" d="M112.9,35.4c0.5,0.2,0.9,0.5,1.2,0.8c0.3,0.3,0.6,0.7,0.8,1.2c0.2,0.4,0.3,0.9,0.3,1.4c0,0.5-0.1,1-0.3,1.4
			c-0.2,0.4-0.5,0.8-0.8,1.2c-0.3,0.3-0.8,0.6-1.2,0.8c-0.5,0.2-1,0.3-1.5,0.3c-0.5,0-1.1-0.1-1.5-0.3c-0.5-0.2-0.9-0.4-1.2-0.8
			c-0.3-0.3-0.6-0.7-0.8-1.2c-0.2-0.4-0.3-0.9-0.3-1.4c0-0.5,0.1-0.9,0.3-1.4c0.2-0.4,0.5-0.8,0.8-1.2c0.3-0.3,0.8-0.6,1.2-0.8
			c0.5-0.2,1-0.3,1.5-0.3C111.9,35.1,112.4,35.2,112.9,35.4z M112.4,41.9c0.2-0.2,0.4-0.5,0.5-0.8c0.1-0.3,0.2-0.7,0.2-1.1
			c0-0.4,0-0.8,0-1.3c0-0.4,0-0.8,0-1.2c0-0.4-0.1-0.8-0.2-1.1c-0.1-0.3-0.3-0.6-0.5-0.8c-0.2-0.2-0.6-0.3-1-0.3s-0.7,0.1-1,0.3
			c-0.2,0.2-0.4,0.5-0.5,0.8c-0.1,0.3-0.2,0.7-0.2,1.1c0,0.4,0,0.8,0,1.2c0,0.4,0,0.8,0,1.3s0.1,0.8,0.2,1.1
			c0.1,0.3,0.3,0.6,0.5,0.8c0.2,0.2,0.6,0.3,1,0.3S112.1,42.1,112.4,41.9z"/>
		<path class="st0" d="M120.2,30.7v11.2h1.1v0.2h-4.1v-0.2h1.1v-11h-1.1v-0.2H120.2z"/>
		<path class="st0" d="M129.8,42.3c-0.3,0-0.5,0.1-0.8,0.1c-0.5,0-0.9-0.1-1.2-0.3c-0.3-0.2-0.4-0.5-0.5-0.8h0
			c-0.2,0.4-0.4,0.7-0.7,0.9c-0.3,0.1-0.7,0.2-1.3,0.2c-0.3,0-0.5,0-0.8-0.1c-0.3-0.1-0.5-0.1-0.7-0.3c-0.2-0.1-0.4-0.3-0.5-0.5
			c-0.1-0.2-0.2-0.5-0.2-0.8c0-0.3,0.1-0.6,0.2-0.8c0.1-0.2,0.3-0.4,0.5-0.5c0.2-0.1,0.4-0.3,0.7-0.3c0.2-0.1,0.5-0.2,0.8-0.3
			c0.4-0.1,0.8-0.2,1.1-0.3c0.3-0.1,0.5-0.2,0.6-0.3c0.1-0.1,0.3-0.2,0.3-0.3c0.1-0.1,0.1-0.3,0.1-0.5v-1c0-0.3-0.1-0.5-0.2-0.8
			c-0.1-0.2-0.4-0.3-0.8-0.3c-0.2,0-0.5,0.1-0.6,0.2c-0.2,0.1-0.3,0.3-0.3,0.6c0,0,0,0.1,0,0.2c0,0.1,0,0.2,0,0.3c0,0.1,0,0.2,0,0.3
			c0,0.1,0,0.1,0,0.2c0,0.2,0,0.3-0.1,0.4c-0.1,0.1-0.2,0.2-0.3,0.2c-0.1,0-0.2,0.1-0.3,0.1c-0.1,0-0.2,0-0.3,0c-0.1,0-0.2,0-0.3,0
			c-0.1,0-0.2-0.1-0.3-0.1c-0.1-0.1-0.2-0.1-0.2-0.2c-0.1-0.1-0.1-0.2-0.1-0.4c0-0.3,0.1-0.5,0.2-0.7c0.2-0.2,0.4-0.4,0.6-0.5
			c0.3-0.1,0.5-0.3,0.9-0.3c0.3-0.1,0.7-0.1,1-0.1c0.4,0,0.8,0,1.1,0.1c0.4,0.1,0.7,0.2,0.9,0.3c0.3,0.2,0.5,0.4,0.6,0.7
			c0.2,0.3,0.2,0.7,0.2,1.1v3.9c0,0.2,0,0.4,0.1,0.5c0.1,0.2,0.2,0.2,0.4,0.2c0.1,0,0.3,0,0.3-0.1s0.2-0.1,0.3-0.2l0.1,0.1
			C130.3,42.1,130.1,42.2,129.8,42.3z M127.2,38.2c0,0.1-0.1,0.1-0.1,0.2c-0.1,0.1-0.2,0.1-0.3,0.2c-0.2,0.1-0.4,0.2-0.6,0.3
			c-0.2,0.1-0.4,0.2-0.5,0.3c-0.2,0.1-0.3,0.3-0.4,0.5c-0.1,0.2-0.2,0.5-0.2,0.8c0,0.1,0,0.3,0,0.4c0,0.2,0.1,0.3,0.1,0.5
			c0.1,0.2,0.2,0.3,0.3,0.4c0.1,0.1,0.3,0.2,0.6,0.2c0.1,0,0.3,0,0.4-0.1c0.1-0.1,0.3-0.2,0.4-0.3c0.1-0.1,0.2-0.3,0.3-0.5
			s0.1-0.5,0.1-0.8L127.2,38.2L127.2,38.2z"/>
		<path class="st0" d="M133.1,41.9v-6.4h-1v-0.2h3v1.6h0c0-0.1,0.1-0.2,0.2-0.4c0.1-0.2,0.3-0.4,0.5-0.6c0.2-0.2,0.5-0.4,0.8-0.5
			c0.3-0.1,0.7-0.2,1.2-0.2c0.7,0,1.2,0.2,1.6,0.6c0.4,0.4,0.6,1,0.6,1.6v4.5h1.1v0.2h-4v-0.2h1v-5c0-0.4-0.1-0.8-0.3-1
			c-0.2-0.2-0.4-0.3-0.7-0.3c-0.3,0-0.5,0.1-0.7,0.2c-0.2,0.1-0.4,0.3-0.6,0.5c-0.2,0.2-0.3,0.5-0.4,0.9c-0.1,0.4-0.2,0.8-0.2,1.3
			v3.4h1v0.2h-4v-0.2H133.1z"/>
		<path class="st0" d="M151.1,41.9v0.2h-3V41h0c-0.2,0.4-0.4,0.8-0.7,1c-0.3,0.2-0.7,0.4-1.2,0.4c-0.5,0-1-0.1-1.4-0.3
			c-0.4-0.2-0.8-0.5-1.1-0.8c-0.3-0.3-0.5-0.7-0.7-1.2c-0.2-0.4-0.3-0.9-0.3-1.4c0-0.4,0.1-0.8,0.2-1.2c0.1-0.4,0.3-0.8,0.6-1.2
			c0.3-0.4,0.6-0.7,1.1-0.9c0.4-0.2,1-0.4,1.6-0.4c0.5,0,0.9,0.1,1.2,0.3c0.3,0.2,0.5,0.6,0.7,1h0v-5.5H147v-0.2h3v11.2H151.1z
			 M148.1,37.6c0-0.4-0.1-0.8-0.2-1.1c-0.1-0.3-0.3-0.6-0.5-0.8c-0.2-0.2-0.5-0.3-0.9-0.3c-0.3,0-0.5,0.1-0.7,0.2
			c-0.2,0.1-0.3,0.3-0.5,0.6c-0.1,0.3-0.2,0.6-0.2,1.1c0,0.4-0.1,1-0.1,1.6c0,0.5,0,1,0,1.4c0,0.4,0.1,0.8,0.2,1.1
			c0.1,0.3,0.2,0.5,0.4,0.7c0.2,0.2,0.4,0.2,0.7,0.2c0.4,0,0.8-0.1,1-0.3c0.2-0.2,0.4-0.5,0.6-0.9c0.1-0.3,0.2-0.7,0.2-1.1
			c0-0.4,0-0.8,0-1.1C148.1,38.4,148.1,38,148.1,37.6z"/>
		<path class="st1" d="M27.4,54.3V49h1.7c0.5,0,0.9,0.1,1.2,0.4c0.3,0.3,0.5,0.6,0.5,1.1c0,0.3-0.1,0.6-0.2,0.8
			c-0.2,0.2-0.4,0.4-0.6,0.5C29.6,52,29.2,52,28.7,52h-0.6v2.3H27.4z M29,49.7h-0.8v1.7H29c0.3,0,0.5-0.1,0.7-0.2
			c0.2-0.1,0.3-0.4,0.3-0.6C30,50,29.6,49.7,29,49.7z"/>
		<path class="st1" d="M35.7,52.1l-0.6-0.4c-0.4-0.2-0.6-0.4-0.8-0.7c-0.2-0.2-0.2-0.5-0.2-0.7c0-0.4,0.1-0.8,0.4-1
			c0.3-0.3,0.7-0.4,1.1-0.4c0.4,0,0.9,0.1,1.2,0.4v0.9c-0.4-0.4-0.8-0.6-1.2-0.6c-0.2,0-0.5,0.1-0.6,0.2c-0.2,0.1-0.2,0.3-0.2,0.4
			c0,0.2,0.1,0.3,0.2,0.4c0.1,0.1,0.3,0.3,0.6,0.4l0.6,0.3c0.7,0.4,1,0.9,1,1.5c0,0.4-0.1,0.8-0.4,1c-0.3,0.3-0.7,0.4-1.1,0.4
			c-0.5,0-1-0.2-1.4-0.5v-1c0.4,0.5,0.9,0.8,1.4,0.8c0.2,0,0.4-0.1,0.6-0.2c0.2-0.1,0.2-0.3,0.2-0.5C36.4,52.7,36.2,52.4,35.7,52.1z
			"/>
		<path class="st1" d="M44.1,49h0.9l-2,2.5v2.8h-0.8v-2.8l-2-2.5h0.9l1.4,1.8L44.1,49z"/>
		<path class="st1" d="M53.2,53.1v0.8c-0.6,0.3-1.2,0.5-1.9,0.5c-0.6,0-1.1-0.1-1.5-0.4c-0.4-0.2-0.7-0.6-1-1
			c-0.2-0.4-0.4-0.9-0.4-1.4c0-0.8,0.3-1.4,0.8-2c0.6-0.5,1.2-0.8,2-0.8c0.6,0,1.2,0.1,1.9,0.4v0.8c-0.6-0.4-1.2-0.5-1.8-0.5
			c-0.6,0-1.1,0.2-1.5,0.6c-0.4,0.4-0.6,0.9-0.6,1.4c0,0.6,0.2,1.1,0.6,1.4c0.4,0.4,0.9,0.6,1.5,0.6C52,53.7,52.6,53.5,53.2,53.1z"
			/>
		<path class="st1" d="M60.9,49h0.8v5.3h-0.8V52h-3v2.3h-0.8V49h0.8v2.3h3V49z"/>
		<path class="st1" d="M68.4,48.9c0.8,0,1.5,0.3,2.1,0.8c0.5,0.5,0.8,1.2,0.8,2s-0.3,1.4-0.8,2c-0.6,0.5-1.3,0.8-2.1,0.8
			c-0.8,0-1.5-0.3-2-0.8c-0.5-0.5-0.8-1.2-0.8-1.9c0-0.8,0.3-1.5,0.8-2C66.9,49.2,67.6,48.9,68.4,48.9z M68.4,49.7
			c-0.6,0-1.1,0.2-1.5,0.6c-0.4,0.4-0.6,0.9-0.6,1.5c0,0.6,0.2,1.1,0.6,1.4s0.9,0.6,1.5,0.6c0.6,0,1.1-0.2,1.5-0.6
			c0.4-0.4,0.6-0.9,0.6-1.5c0-0.6-0.2-1-0.6-1.4C69.5,49.8,69,49.7,68.4,49.7z"/>
		<path class="st1" d="M74.2,49h4.5v0.7h-1.9v4.7h-0.8v-4.7h-1.8V49z"/>
		<path class="st1" d="M86.1,49h0.8v5.3h-0.8V52h-3v2.3h-0.8V49h0.8v2.3h3V49z"/>
		<path class="st1" d="M91.1,49h3v0.7h-2.3v1.6H94V52h-2.2v1.7h2.3v0.7h-3.1V49z"/>
		<path class="st1" d="M98,54.3V49h1.3c0.5,0,1,0.1,1.3,0.4c0.3,0.3,0.5,0.6,0.5,1.1c0,0.3-0.1,0.6-0.2,0.8
			c-0.2,0.2-0.4,0.4-0.7,0.5c0.2,0.1,0.3,0.3,0.5,0.5c0.2,0.2,0.4,0.5,0.7,1c0.2,0.3,0.3,0.5,0.4,0.7l0.3,0.4h-0.9l-0.2-0.4
			c0,0,0,0,0-0.1l-0.1-0.2l-0.2-0.4l-0.3-0.4c-0.2-0.2-0.3-0.4-0.4-0.5c-0.1-0.1-0.2-0.2-0.4-0.3C99.3,52,99.2,52,98.9,52h-0.2v2.3
			H98z M98.9,49.7h-0.2v1.7H99c0.4,0,0.7,0,0.8-0.1c0.1-0.1,0.3-0.2,0.3-0.3c0.1-0.1,0.1-0.3,0.1-0.5c0-0.2,0-0.3-0.1-0.5
			c-0.1-0.1-0.2-0.2-0.4-0.3C99.6,49.7,99.3,49.7,98.9,49.7z"/>
		<path class="st1" d="M107.3,49h0.5l2.4,5.4h-0.8l-0.7-1.6h-2.3l-0.7,1.6H105L107.3,49z M108.4,52.1l-0.9-1.9l-0.8,1.9H108.4z"/>
		<path class="st1" d="M113.8,54.3V49h1.7c0.5,0,0.9,0.1,1.2,0.4c0.3,0.3,0.5,0.6,0.5,1.1c0,0.3-0.1,0.6-0.2,0.8
			c-0.2,0.2-0.4,0.4-0.6,0.5c-0.3,0.1-0.7,0.2-1.2,0.2h-0.6v2.3H113.8z M115.3,49.7h-0.8v1.7h0.8c0.3,0,0.5-0.1,0.7-0.2
			c0.2-0.1,0.3-0.4,0.3-0.6C116.3,50,116,49.7,115.3,49.7z"/>
		<path class="st1" d="M124,49h0.9l-2,2.5v2.8h-0.8v-2.8l-2-2.5h0.9l1.4,1.8L124,49z"/>
	</g>
	<path class="st1" d="M83.5,0.8L83.5,1l-5.8,16.5h-0.1L71.8,0.8l-9.5,0c-0.9,0-1.9,0-2.8,0c-0.9,0-1.8,0.1-2.7,0.3
		c-1,0.2-1.8,0.5-2.6,0.9c-0.8,0.4-1.5,1-2,1.7c-0.5,0.7-0.8,1.6-0.8,2.8c0,0.9,0.2,1.6,0.6,2.3c0.4,0.6,0.9,1.1,1.5,1.5
		c0.6,0.4,1.3,0.7,2.1,0.9c0.8,0.2,1.5,0.3,2.3,0.4v0.2c-1.1,0.2-2.1,0.4-2.9,0.6c-0.9,0.2-1.6,0.5-2.2,0.9c-0.6,0.4-1.1,1-1.5,1.7
		c-0.4,0.7-0.6,1.7-0.7,2.9c-0.1,1.4-0.2,2.5-0.3,3.3c-0.1,0.8-0.2,1.5-0.3,2c-0.1,0.5-0.3,0.8-0.5,0.9c-0.2,0.2-0.5,0.2-0.9,0.2
		c-0.4,0-0.8-0.1-1.1-0.4c-0.3-0.3-0.5-0.5-0.8-0.7l-0.3,0.3c0.2,0.2,0.4,0.4,0.6,0.6c0.2,0.2,0.5,0.3,0.7,0.5
		c0.3,0.1,0.6,0.2,1,0.3c0.4,0.1,0.9,0.1,1.5,0.1c1.2,0,2.2-0.2,2.9-0.6c0.7-0.4,1.2-0.9,1.5-1.4c0.3-0.6,0.5-1.2,0.6-1.9
		c0.1-0.7,0.1-1.3,0.1-1.9c0-0.9,0.1-1.8,0.2-2.6c0.1-0.9,0.3-1.6,0.5-2.3c0.3-0.7,0.7-1.2,1.3-1.6c0.6-0.4,1.4-0.6,2.4-0.6h2.2v12
		h-3.1v0.5h4.3H70h0v-0.5h0h-3V1.4H67l8.2,23.1h0.5l8.2-23.1h0.1v22.7h-3h0v0.5h0h10.9h0v-0.5h0h-3v-12h2.2c1,0,1.8,0.2,2.4,0.6
		c0.6,0.4,1,0.9,1.3,1.6c0.3,0.7,0.5,1.4,0.5,2.3c0.1,0.9,0.1,1.7,0.2,2.6c0,0.6,0.1,1.2,0.1,1.9c0.1,0.7,0.3,1.3,0.6,1.9
		c0.3,0.6,0.8,1.1,1.5,1.4c0.7,0.4,1.6,0.6,2.9,0.6c0.6,0,1.1,0,1.5-0.1c0.4-0.1,0.7-0.2,1-0.3c0.3-0.1,0.5-0.3,0.7-0.5
		c0.2-0.2,0.4-0.4,0.6-0.6l-0.3-0.3c-0.2,0.2-0.5,0.5-0.8,0.7c-0.3,0.3-0.7,0.4-1.1,0.4c-0.4,0-0.7-0.1-0.9-0.2
		c-0.2-0.2-0.4-0.5-0.5-0.9c-0.1-0.5-0.2-1.1-0.3-2c-0.1-0.8-0.2-2-0.3-3.3c-0.1-1.2-0.3-2.1-0.7-2.9c-0.4-0.7-0.9-1.3-1.5-1.7
		c-0.6-0.4-1.4-0.7-2.2-0.9C95,12.2,94.1,12,93,11.8v-0.2c0.8-0.1,1.5-0.2,2.3-0.4c0.8-0.2,1.5-0.5,2.1-0.9c0.6-0.4,1.1-0.9,1.5-1.5
		c0.4-0.6,0.6-1.4,0.6-2.3c0-1.1-0.3-2-0.8-2.8c-0.5-0.7-1.2-1.3-2-1.7c-0.8-0.4-1.7-0.7-2.6-0.9c-1-0.2-1.9-0.3-2.7-0.3L83.5,0.8z
		 M62.1,11.6h-1.4c-1,0-1.8-0.1-2.4-0.4c-0.6-0.3-1-0.6-1.3-1.1c-0.3-0.5-0.5-1-0.5-1.5c-0.1-0.6-0.1-1.2-0.1-1.8
		c0-1,0.1-1.8,0.2-2.5c0.1-0.7,0.4-1.3,0.7-1.7c0.3-0.5,0.7-0.8,1.3-1c0.5-0.2,1.2-0.3,2.1-0.3c0.2,0,0.5,0,0.7,0
		c0.2,0,0.5,0,0.7,0.1V11.6z M90.1,11.6h-1.4V1.4h2.7c0.3,0.1,0.6,0.1,0.8,0.2c0.5,0.2,1,0.6,1.3,1c0.3,0.5,0.5,1,0.7,1.7
		c0.1,0.7,0.2,1.5,0.2,2.5c0,0.6,0,1.2-0.1,1.8c-0.1,0.6-0.3,1.1-0.5,1.5c-0.3,0.5-0.7,0.8-1.3,1.1C91.9,11.5,91.1,11.6,90.1,11.6z"
		/>
</g>
</svg>
